<?xml version="1.0" standalone="no"?>
<!DOCTYPE svg PUBLIC "-//W3C//DTD SVG 20010904//EN"
 "http://www.w3.org/TR/2001/REC-SVG-20010904/DTD/svg10.dtd">
<svg version="1.0" xmlns="http://www.w3.org/2000/svg"
 width="853.000000pt" height="1280.000000pt" viewBox="0 0 853.000000 1280.000000"
 preserveAspectRatio="xMidYMid meet">

<g transform="translate(0.000000,1280.000000) scale(0.100000,-0.100000)"
fill="#000000" stroke="none">
<path d="M0 6511 c0 -5022 3 -6290 13 -6294 9 -4 9 -6 0 -6 -8 -1 -13 -14 -13
-33 1 -30 2 -31 14 -15 20 26 26 21 13 -13 -6 -16 -15 -30 -19 -30 -3 0 -6
-14 -6 -30 1 -23 5 -29 15 -25 8 3 17 5 19 5 2 0 -1 9 -8 20 -11 17 -9 24 14
47 32 32 48 24 24 -11 -20 -31 -20 -46 -1 -46 8 0 15 4 15 9 0 12 44 22 63 15
11 -4 15 -17 12 -45 -2 -21 1 -41 6 -44 5 -3 6 2 2 11 -4 12 -2 15 8 12 8 -3
15 -10 15 -16 3 -26 6 -26 14 -2 8 24 8 24 9 3 l1 -23 4005 0 c3430 0 4004 2
3999 14 -9 25 18 30 37 8 13 -17 28 -22 65 -22 l48 0 -28 29 c-24 25 -34 28
-62 24 -21 -4 -34 -2 -34 5 0 6 -6 9 -14 6 -7 -3 -16 1 -19 9 -4 12 3 13 39 9
29 -3 44 -1 44 7 0 6 7 11 15 11 8 0 15 -4 15 -10 0 -5 17 -12 38 -16 20 -4
40 -12 44 -18 5 -8 11 -7 20 2 18 19 -18 47 -39 31 -10 -9 -26 -2 -68 26 -59
41 -64 54 -16 37 36 -13 44 4 9 18 -14 5 -17 9 -8 9 9 1 33 -8 55 -19 37 -19
65 -19 35 0 -8 5 -11 12 -7 16 4 4 13 2 19 -4 7 -7 25 -12 40 -12 15 0 28 -4
28 -10 0 -5 -9 -10 -20 -10 -28 0 -25 -18 5 -32 14 -6 25 -15 25 -19 0 -4 10
-5 22 -1 14 3 19 2 14 -6 -4 -7 -2 -12 3 -12 8 0 11 1892 11 6365 l0 6365
-4265 0 -4265 0 0 -6289z m4827 4697 c-3 -8 -6 -5 -6 6 -1 11 2 17 5 13 3 -3
4 -12 1 -19z m119 -3 c-4 -12 0 -14 20 -9 19 5 29 1 40 -15 8 -11 24 -21 34
-21 10 0 22 -5 25 -10 4 -6 10 -8 15 -5 5 3 21 0 36 -6 21 -7 25 -12 15 -18
-7 -5 -12 -14 -9 -21 3 -9 8 -8 20 4 20 20 28 20 28 2 0 -7 10 -16 22 -19 l22
-6 -22 -24 -22 -23 30 -18 c33 -19 37 -29 17 -48 -17 -15 -10 -58 9 -58 8 0
14 -7 14 -15 0 -8 5 -15 11 -15 5 0 8 4 4 9 -3 5 -1 12 5 16 10 6 15 -13 12
-47 -1 -12 5 -18 18 -18 12 0 20 -7 20 -16 0 -10 -6 -14 -15 -10 -18 6 -20
-15 -3 -32 8 -8 8 -15 -2 -27 -12 -14 -11 -18 1 -26 13 -8 6 -13 -13 -10 -15
2 -8 -18 10 -28 14 -9 15 -12 3 -20 -12 -8 -12 -14 -2 -39 17 -41 5 -113 -24
-144 -24 -26 -26 -42 -12 -65 6 -9 2 -13 -10 -14 -14 0 -15 -2 -3 -7 8 -4 17
-20 19 -37 1 -16 8 -33 15 -37 7 -5 3 -8 -9 -8 -16 0 -17 -2 -5 -9 8 -6 17 -8
21 -5 4 2 10 0 14 -6 4 -6 -14 -10 -49 -10 -38 0 -56 -4 -56 -12 0 -9 -4 -8
-10 2 -7 11 -10 11 -10 2 0 -7 -6 -12 -12 -11 -28 3 -38 -2 -38 -19 0 -15 -7
-17 -37 -14 -29 2 -34 1 -23 -7 13 -9 13 -11 -2 -11 -9 0 -19 6 -21 13 -4 7
-6 6 -6 -5 -1 -9 7 -19 17 -21 9 -2 -14 -3 -51 -2 -48 1 -73 -2 -83 -12 -8 -9
-23 -12 -36 -8 -19 5 -20 4 -8 -5 12 -9 8 -11 -18 -6 -18 3 -31 2 -28 -3 3 -5
-3 -11 -14 -14 -13 -3 -18 -1 -13 6 4 7 -1 6 -10 -2 -10 -7 -30 -11 -47 -9
-17 3 -34 0 -37 -5 -3 -6 -1 -7 5 -3 8 5 10 2 6 -9 -5 -12 -9 -13 -20 -4 -17
14 -19 -2 -2 -19 8 -8 8 -12 1 -12 -6 0 -16 6 -23 14 -6 8 -18 12 -26 9 -8 -3
-14 -1 -14 5 0 6 -9 8 -20 5 -11 -3 -26 0 -34 6 -10 9 -16 9 -21 1 -4 -6 -16
-8 -27 -4 -15 4 -18 3 -13 -6 5 -9 4 -11 -4 -6 -16 10 -3 29 16 22 8 -3 12 -2
9 3 -3 5 -17 11 -31 14 -19 3 -25 1 -21 -9 3 -8 0 -11 -9 -8 -8 3 -14 9 -13
12 2 20 -3 25 -12 12 -8 -12 -10 -12 -11 5 l0 20 -9 -20 c-7 -17 -9 -17 -9 -2
-1 9 -5 17 -11 17 -5 0 -10 8 -11 18 0 14 -2 14 -9 -3 -8 -19 -8 -19 -18 5
-11 25 -11 24 -11 -7 -1 -18 -4 -33 -8 -33 -5 0 -9 -17 -10 -37 -1 -21 -6 -39
-12 -41 -5 -2 -7 -11 -4 -20 6 -15 5 -15 -10 -3 -9 7 -17 22 -17 32 0 11 -7
19 -15 19 -8 0 -15 7 -15 15 0 8 -5 15 -11 15 -5 0 -8 4 -4 9 3 5 1 12 -5 16
-5 3 -10 16 -11 28 0 12 -3 17 -5 11 -6 -13 -44 -6 -44 8 0 5 -9 4 -20 -2 -12
-7 -17 -16 -13 -27 4 -11 3 -14 -6 -9 -9 6 -10 0 -6 -21 5 -25 4 -26 -4 -5 -6
12 -17 22 -25 22 -8 0 -17 6 -19 13 -3 6 -6 3 -6 -8 -1 -17 -3 -18 -12 -5 -8
12 -9 9 -5 -12 5 -23 3 -28 -14 -28 -11 0 -20 5 -20 10 0 6 -13 10 -30 10 -16
0 -30 4 -30 9 0 5 -6 9 -12 8 -35 -1 -47 4 -42 17 3 8 1 17 -5 21 -16 9 -14
48 2 39 9 -5 9 -4 0 6 -6 7 -9 19 -6 26 3 9 -1 14 -12 14 -9 0 -14 4 -11 9 3
5 -1 14 -9 21 -8 7 -15 9 -16 4 0 -5 -4 1 -10 14 -5 13 -13 21 -18 18 -14 -9
-23 26 -9 36 10 6 10 10 1 16 -22 14 -29 54 -21 113 4 33 15 70 23 82 8 13 12
27 8 31 -9 8 -11 66 -3 61 3 -2 13 3 23 10 11 8 14 16 8 20 -11 6 12 52 33 67
6 4 9 26 7 49 -2 32 0 40 11 34 7 -3 5 0 -6 9 -10 8 -15 20 -11 26 5 9 10 9
18 1 15 -15 27 -14 27 4 0 20 10 19 26 -2 11 -17 14 -16 38 10 30 33 36 34 37
5 1 -17 2 -19 6 -5 6 24 23 21 23 -5 0 -28 9 -18 12 13 2 19 7 25 23 23 11 -1
23 -3 28 -3 4 -1 7 -9 7 -18 0 -15 2 -16 10 -3 6 10 6 16 0 18 -6 2 -10 8 -10
13 0 16 30 -3 31 -20 0 -10 2 -11 6 -3 7 17 23 15 23 -3 0 -8 7 -15 15 -15 19
0 19 -17 0 -36 -12 -12 -13 -20 -3 -37 7 -14 13 -17 16 -9 2 6 10 12 18 12 17
0 19 16 3 26 -6 3 -9 16 -7 28 4 20 -20 56 -32 48 -15 -10 -7 17 10 33 11 10
20 24 20 32 0 7 5 13 11 13 6 0 9 -9 6 -20 -3 -11 -1 -20 3 -20 5 0 10 12 12
27 2 19 10 29 28 33 22 5 23 7 6 13 -15 6 -16 10 -6 22 16 20 28 19 33 -2 4
-15 5 -15 6 2 0 11 11 26 22 34 18 10 19 15 8 22 -10 6 -10 9 -1 9 6 0 12 7
12 15 0 8 4 15 9 15 5 0 7 -10 3 -22 -5 -20 -3 -21 11 -10 9 8 13 20 10 28 -3
8 0 14 7 14 6 0 8 -4 5 -10 -4 -6 5 -10 20 -10 18 0 24 -4 19 -12 -4 -7 7 -2
24 11 29 20 33 21 38 6 5 -12 9 -13 14 -4 6 9 18 9 49 2 23 -6 41 -7 41 -2 0
12 107 12 114 0 7 -11 46 -3 46 9 0 5 -6 11 -12 13 -8 3 -6 6 5 6 9 1 17 -4
17 -10 0 -6 9 -8 23 -3 12 4 39 6 60 6 20 -1 37 3 37 8 0 6 5 10 11 10 6 0 9
-7 5 -15z m-459 -11 c-3 -3 -12 -4 -19 -1 -8 3 -5 6 6 6 11 1 17 -2 13 -5z
m740 -150 c-3 -3 -12 -4 -19 -1 -8 3 -5 6 6 6 11 1 17 -2 13 -5z m-1217 -88
c0 -11 -19 -15 -25 -6 -3 5 1 10 9 10 9 0 16 -2 16 -4z m1260 -12 c0 -8 -5
-12 -10 -9 -6 4 -8 11 -5 16 9 14 15 11 15 -7z m-30 -4 c0 -5 -5 -10 -11 -10
-5 0 -7 5 -4 10 3 6 8 10 11 10 2 0 4 -4 4 -10z m-1344 -92 c-1 -30 -40 -88
-51 -76 -3 2 4 14 16 26 11 12 17 27 14 32 -5 8 10 50 19 50 2 0 3 -14 2 -32z
m1384 -398 c0 -5 -5 -10 -11 -10 -5 0 -7 5 -4 10 3 6 8 10 11 10 2 0 4 -4 4
-10z m-37 -177 c-7 -2 -21 -2 -30 0 -10 3 -4 5 12 5 17 0 24 -2 18 -5z m-26
-29 c-3 -3 -12 -4 -19 -1 -8 3 -5 6 6 6 11 1 17 -2 13 -5z m-110 -30 c-3 -3
-12 -4 -19 -1 -8 3 -5 6 6 6 11 1 17 -2 13 -5z m-613 -100 c5 -14 4 -15 -9 -4
-17 14 -19 20 -6 20 5 0 12 -7 15 -16z m774 -41 c-10 -2 -26 -2 -35 0 -10 3
-2 5 17 5 19 0 27 -2 18 -5z m-1491 -9 c-3 -3 -12 -4 -19 -1 -8 3 -5 6 6 6 11
1 17 -2 13 -5z m1176 -1 c-7 -2 -19 -2 -25 0 -7 3 -2 5 12 5 14 0 19 -2 13 -5z
m475 0 c-21 -2 -55 -2 -75 0 -21 2 -4 4 37 4 41 0 58 -2 38 -4z m-1508 -23
c28 -8 25 -8 -18 -4 -29 3 -65 10 -80 15 -35 11 47 2 98 -11z m1618 13 c-10
-2 -28 -2 -40 0 -13 2 -5 4 17 4 22 1 32 -1 23 -4z m-2688 -114 c-6 -57 -13
-108 -16 -114 -6 -13 4 133 12 185 12 76 14 33 4 -71z m2768 104 c-10 -2 -28
-2 -40 0 -13 2 -5 4 17 4 22 1 32 -1 23 -4z m59 -9 c-3 -3 -12 -4 -19 -1 -8 3
-5 6 6 6 11 1 17 -2 13 -5z m-1674 -11 c-7 -2 -19 -2 -25 0 -7 3 -2 5 12 5 14
0 19 -2 13 -5z m74 -15 c32 -14 89 -58 75 -58 -5 0 -22 10 -37 22 -15 11 -43
27 -64 34 -20 7 -28 13 -19 14 9 0 30 -5 45 -12z m277 -33 c4 11 2 22 -6 26
-7 4 -10 10 -7 13 3 3 16 -6 30 -21 18 -20 20 -25 7 -20 -10 4 -18 2 -18 -3 0
-5 10 -11 23 -13 12 -2 -12 -4 -53 -4 -46 0 -63 2 -44 6 24 4 30 11 28 25 -5
36 9 40 21 6 10 -28 13 -31 19 -15z m123 -31 c-3 -3 -12 -4 -19 -1 -8 3 -5 6
6 6 11 1 17 -2 13 -5z m-44 -11 c-7 -2 -19 -2 -25 0 -7 3 -2 5 12 5 14 0 19
-2 13 -5z m1334 -198 c8 -23 0 -24 -19 -3 -15 15 -16 18 -3 18 9 0 18 -7 22
-15z m-1403 -44 c40 -25 56 -53 106 -191 23 -63 52 -133 63 -155 20 -40 23
-83 11 -139 -5 -23 -3 -28 8 -23 10 3 21 -6 31 -28 9 -19 32 -51 50 -72 35
-38 60 -103 51 -128 -8 -19 -25 -21 -118 -14 -75 6 -86 4 -143 -22 -34 -16
-66 -29 -72 -29 -5 0 -37 24 -71 53 l-62 52 5 62 c3 37 0 66 -6 72 -8 8 -7 11
2 11 7 0 11 8 10 18 -1 9 1 42 5 72 10 83 11 152 2 179 -6 18 -5 22 4 16 10
-6 11 1 6 29 -5 24 -3 43 5 52 8 10 8 14 0 14 -6 0 -11 7 -11 16 0 8 5 12 10
9 8 -5 9 18 4 72 -4 43 -3 75 1 71 4 -4 14 -1 22 7 20 20 50 19 87 -4z m1575
-19 c6 -12 7 -30 1 -48 -4 -16 -9 -26 -9 -21 -1 4 -17 -7 -37 -25 -20 -18 -40
-32 -45 -31 -5 2 -24 -14 -42 -34 -37 -40 -52 -38 -62 8 -11 50 30 119 72 119
12 0 23 4 23 9 0 5 13 12 30 16 16 4 32 11 35 16 10 14 23 11 34 -9z m-399
-268 c-25 -58 -25 -67 0 -29 11 17 20 27 20 23 0 -3 3 -15 6 -25 5 -15 4 -15
-5 -3 -7 9 -11 10 -11 3 0 -6 5 -15 10 -18 6 -4 8 -10 5 -15 -3 -5 -6 -24 -7
-43 -1 -25 -6 -34 -17 -33 -13 1 -16 -10 -16 -59 -1 -33 -4 -66 -9 -73 -4 -7
-5 -19 -2 -27 3 -8 2 -14 -2 -14 -20 3 -23 -3 -11 -18 12 -15 12 -16 -3 -10
-10 3 -20 2 -23 -3 -3 -5 1 -10 8 -12 10 -2 6 -17 -15 -57 -15 -29 -28 -50
-28 -46 0 3 -11 -7 -25 -23 -14 -17 -25 -35 -25 -41 0 -6 -8 -11 -17 -11 -9 0
-14 3 -10 6 7 7 -17 34 -30 34 -4 0 -21 7 -36 15 -15 8 -25 10 -22 5 3 -5 -17
-20 -45 -32 -35 -15 -46 -24 -38 -30 8 -6 -5 -7 -32 -4 -25 3 -36 2 -25 -2 11
-4 29 -12 40 -19 19 -11 19 -11 0 -33 -20 -22 -20 -22 3 -40 12 -10 22 -24 22
-31 0 -7 3 -9 8 -5 4 4 7 13 7 19 0 7 15 13 33 15 17 2 32 7 32 11 0 5 9 11
20 14 25 6 25 -3 1 -29 -14 -15 -16 -25 -9 -38 12 -22 1 -36 -12 -16 -8 13
-10 12 -10 -2 0 -10 -4 -18 -9 -18 -5 0 -12 -9 -16 -20 -3 -11 -9 -19 -13 -19
-23 4 -39 -3 -39 -16 0 -8 4 -12 9 -9 4 3 8 -2 8 -10 0 -9 -6 -13 -14 -10 -8
3 -17 1 -21 -5 -3 -6 0 -11 7 -11 9 0 9 -3 -2 -10 -13 -8 -12 -10 3 -10 10 0
16 -4 13 -9 -3 -4 -16 -7 -30 -6 -21 3 -24 -1 -20 -21 3 -18 1 -22 -12 -17
-14 5 -14 2 2 -23 13 -20 14 -25 4 -18 -12 9 -18 9 -27 -1 -7 -8 -9 -16 -4
-20 5 -3 12 1 14 7 3 7 6 8 6 2 2 -19 -60 -73 -77 -67 -13 4 -14 3 -3 -5 9 -7
10 -11 2 -17 -7 -3 -9 -15 -6 -25 3 -10 1 -21 -5 -25 -6 -3 -8 -11 -5 -16 9
-13 -6 -10 -35 7 l-25 15 28 -6 c19 -4 26 -2 22 5 -3 5 -15 10 -26 10 -19 0
-23 9 -20 41 1 9 -6 19 -15 23 -9 3 -14 12 -11 20 3 8 -1 23 -9 35 -8 11 -12
21 -7 21 4 1 -1 6 -12 13 -11 7 -20 21 -20 31 0 10 -9 24 -19 30 -11 6 -28 19
-38 29 -10 9 -24 17 -32 17 -8 0 -22 3 -32 7 -12 4 -15 3 -10 -5 6 -9 1 -9
-18 0 -14 6 -26 15 -26 19 0 4 -11 10 -25 13 -13 3 -29 15 -35 26 -6 11 -18
20 -27 20 -24 0 -83 23 -83 32 0 4 7 5 15 2 24 -10 8 20 -21 37 -24 15 -24 16
-8 30 11 9 15 9 10 2 -4 -8 -2 -13 7 -13 16 0 78 65 70 74 -3 3 6 18 21 32 14
15 31 47 37 70 7 28 18 46 30 49 11 4 17 11 14 16 -4 5 6 9 20 9 15 0 24 -4
20 -10 -10 -16 15 -11 33 6 11 11 17 13 20 5 2 -6 8 -8 14 -5 7 4 7 -2 3 -17
-7 -21 -6 -22 9 -10 14 12 16 11 16 -5 0 -12 3 -15 8 -7 9 13 64 12 74 -2 4
-5 13 -10 20 -11 41 -3 41 -3 27 -20 -11 -13 -9 -14 15 -8 19 4 31 2 36 -7 7
-11 13 -10 29 6 12 10 24 15 29 10 4 -4 1 -10 -5 -12 -7 -3 -13 -9 -13 -15 0
-7 5 -7 13 1 8 6 18 7 22 3 5 -4 5 1 2 11 -6 15 -3 17 14 12 15 -5 19 -4 15 4
-5 8 1 8 21 0 23 -8 26 -8 16 2 -18 18 -16 32 8 58 18 19 19 25 8 32 -8 5 -9
9 -3 9 6 0 16 18 22 40 8 34 8 40 -7 41 -9 0 16 8 54 18 138 34 181 77 254
254 11 26 22 47 25 47 3 0 -4 -21 -14 -46z m293 24 c3 -13 9 -57 12 -98 4 -41
13 -108 22 -149 23 -109 7 -251 -35 -298 -21 -24 -102 -76 -102 -66 -1 19 -20
-24 -20 -44 0 -12 -12 -36 -27 -53 -20 -25 -24 -36 -16 -49 16 -26 38 -19 41
14 2 17 8 34 13 40 5 5 9 17 9 27 0 10 7 18 15 18 8 0 33 17 55 39 22 21 40
38 40 36 0 -1 -10 -28 -21 -61 -15 -40 -22 -85 -23 -140 -1 -87 -9 -105 -58
-130 -21 -11 -33 -12 -42 -5 -7 6 -15 8 -18 5 -4 -3 -20 2 -38 11 -31 16 -32
17 -26 73 3 31 8 89 11 127 3 39 12 108 20 155 14 77 33 200 36 225 3 28 17
-47 18 -95 1 -51 2 -53 18 -38 9 10 16 32 16 50 0 32 16 58 35 58 13 0 24 26
29 69 2 18 4 36 5 40 3 28 -7 45 -37 62 -19 12 -35 26 -35 33 0 6 11 31 25 56
14 25 32 60 41 78 19 38 30 41 37 10z m84 -130 c-3 -68 -10 -136 -15 -153 l-9
-30 -6 40 c-13 77 -5 187 18 253 13 37 17 -1 12 -110z m-2677 -65 c0 -7 -39
17 -46 28 -3 6 5 3 20 -6 14 -10 26 -19 26 -22z m2314 2 c-4 -8 -8 -15 -10
-15 -2 0 -4 7 -4 15 0 8 4 15 10 15 5 0 7 -7 4 -15z m-760 -26 c22 -6 69 -15
105 -20 l66 -8 -70 4 c-38 2 -90 11 -115 19 -53 17 -42 21 14 5z m433 -15 c-3
-3 -12 -4 -19 -1 -8 3 -5 6 6 6 11 1 17 -2 13 -5z m-54 -11 c-7 -2 -21 -2 -30
0 -10 3 -4 5 12 5 17 0 24 -2 18 -5z m127 -283 c0 -5 -5 -10 -11 -10 -5 0 -7
5 -4 10 3 6 8 10 11 10 2 0 4 -4 4 -10z m40 -10 c0 -5 -4 -10 -10 -10 -5 0
-10 5 -10 10 0 6 5 10 10 10 6 0 10 -4 10 -10z m-110 -25 c0 -8 -4 -15 -10
-15 -5 0 -10 7 -10 15 0 8 5 15 10 15 6 0 10 -7 10 -15z m40 11 c0 -3 -4 -8
-10 -11 -5 -3 -10 -1 -10 4 0 6 5 11 10 11 6 0 10 -2 10 -4z m70 -16 c0 -5 -4
-10 -10 -10 -5 0 -10 5 -10 10 0 6 5 10 10 10 6 0 10 -4 10 -10z m-825 -110
c3 -5 1 -10 -4 -10 -6 0 -11 5 -11 10 0 6 2 10 4 10 3 0 8 -4 11 -10z m23
-200 c6 0 12 -5 12 -11 0 -6 7 -9 15 -5 8 3 15 0 15 -7 0 -8 4 -6 10 3 8 13
10 12 10 -4 0 -11 3 -16 7 -13 3 4 13 1 21 -6 13 -10 15 -9 9 6 -4 11 -3 16 3
12 6 -3 10 -15 10 -25 0 -13 5 -17 15 -14 11 5 15 -1 15 -22 0 -22 3 -25 10
-14 11 18 23 8 14 -14 -8 -22 -13 -21 -81 17 -67 38 -166 77 -194 77 -11 0
-39 -10 -62 -21 -23 -12 -44 -22 -47 -21 -3 0 -12 -4 -21 -8 -16 -9 -128 38
-161 68 -17 14 -17 16 -1 27 17 13 53 9 53 -6 0 -5 6 -9 13 -9 6 0 23 -6 37
-13 14 -8 36 -13 48 -12 15 1 21 -3 18 -12 -8 -20 4 -15 30 13 13 14 29 22 34
19 6 -3 10 -2 10 3 0 6 11 13 25 16 14 4 25 10 25 15 0 5 21 -2 48 -15 26 -13
53 -24 60 -24z m642 -20 c0 -5 -2 -10 -4 -10 -3 0 -8 5 -11 10 -3 6 -1 10 4
10 6 0 11 -4 11 -10z m-431 -104 c-3 -3 -11 5 -18 17 -13 21 -12 21 5 5 10
-10 16 -20 13 -22z m-338 -113 l1 -38 9 33 c11 38 22 41 37 10 11 -22 11 -22
7 5 -5 39 22 35 41 -5 9 -20 13 -24 10 -11 -8 41 14 35 34 -9 20 -44 28 -30
10 18 -9 24 -9 25 5 14 8 -7 15 -23 15 -36 0 -12 4 -26 10 -29 6 -4 8 7 5 27
-5 31 -5 32 6 8 7 -15 13 -20 16 -12 3 6 10 9 16 5 7 -4 8 0 3 12 -5 14 -3 15
6 8 7 -6 22 -7 32 -3 29 10 95 -5 117 -27 11 -10 21 -30 24 -43 2 -13 8 -26
13 -29 5 -3 12 -22 15 -41 6 -31 5 -33 -7 -17 -17 22 -25 22 -19 -2 3 -10 0
-22 -6 -25 -7 -4 -11 1 -11 12 0 14 -7 19 -27 19 -47 1 -73 7 -73 18 0 5 -4 3
-10 -5 -8 -12 -10 -12 -15 3 -6 13 -11 14 -27 6 -11 -6 -22 -8 -26 -5 -3 3 0
6 6 6 7 0 12 5 12 11 0 6 -6 9 -13 6 -7 -3 -21 1 -32 9 -18 13 -17 14 11 15
l29 1 -28 10 c-23 8 -31 7 -43 -8 -9 -11 -13 -13 -9 -7 4 9 -2 11 -24 7 -23
-5 -30 -2 -34 12 -4 15 -5 15 -6 -4 -1 -21 -4 -22 -43 -17 -24 4 -46 11 -49
17 -4 6 -9 5 -12 -3 -8 -19 -8 71 -1 99 10 35 24 26 25 -15z m-298 -1 c-3 -12
-9 -22 -14 -22 -5 0 -3 11 3 25 13 30 20 28 11 -3z m151 -4 c23 -44 21 -78 -4
-78 -22 0 -37 53 -25 89 8 28 11 27 29 -11z m37 -78 c-3 -8 -7 3 -9 25 -2 22
-8 43 -14 46 -7 4 -8 14 -3 25 6 15 11 8 20 -31 6 -27 9 -57 6 -65z m29 83 c0
-16 5 -35 11 -43 7 -11 8 -3 4 28 -7 41 6 59 19 26 10 -25 7 -94 -4 -94 -5 0
-10 5 -10 11 0 5 -4 7 -10 4 -5 -3 -10 1 -10 9 0 9 -4 16 -10 16 -5 0 -10 16
-10 35 0 19 5 35 10 35 6 0 10 -12 10 -27z m-273 -5 c-3 -8 -6 -5 -6 6 -1 11
2 17 5 13 3 -3 4 -12 1 -19z m113 -33 c6 17 7 17 12 -7 3 -15 1 -33 -3 -40 -7
-10 -9 -8 -9 5 0 10 -4 16 -9 13 -13 -8 -23 42 -14 67 7 18 9 15 12 -18 2 -30
5 -35 11 -20z m44 33 c9 -36 7 -66 -6 -74 -7 -5 -9 -2 -5 9 3 9 2 17 -2 19 -4
2 -11 18 -14 36 -8 38 17 47 27 10z m-227 -20 c-3 -8 -6 -5 -6 6 -1 11 2 17 5
13 3 -3 4 -12 1 -19z m1003 12 c0 -5 -4 -10 -10 -10 -5 0 -10 5 -10 10 0 6 5
10 10 10 6 0 10 -4 10 -10z m-30 -10 c0 -5 -2 -10 -4 -10 -3 0 -8 5 -11 10 -3
6 -1 10 4 10 6 0 11 -4 11 -10z m36 -29 c-12 -13 -13 -20 -4 -29 7 -7 8 -12 2
-12 -18 0 -32 21 -27 41 3 10 9 17 13 14 4 -3 11 3 15 13 5 12 9 13 12 4 3 -7
-2 -21 -11 -31z m-211 -131 c-3 -5 -10 -10 -16 -10 -5 0 -9 5 -9 10 0 6 7 10
16 10 8 0 12 -4 9 -10z m-497 -145 c6 11 12 15 12 10 0 -6 17 -9 38 -7 22 2
55 -1 75 -6 27 -8 46 -6 78 4 34 12 44 13 50 2 7 -10 9 -10 9 0 0 7 13 12 32
12 17 0 29 -3 25 -6 -3 -4 0 -12 7 -19 9 -9 33 -13 71 -10 36 2 52 -1 44 -6
-8 -5 -25 -9 -39 -10 -20 -1 -18 -3 10 -9 19 -5 37 -5 40 0 3 5 19 12 35 16
28 7 29 7 12 -10 -23 -24 -21 -29 5 -15 17 9 23 9 26 0 2 -6 8 -8 14 -5 5 3 2
14 -8 25 -19 22 -5 26 28 8 16 -8 22 -8 29 2 9 15 3 29 -12 29 -6 0 -7 -4 -4
-10 3 -5 1 -10 -4 -10 -16 0 -13 20 4 26 8 4 22 1 30 -6 13 -10 13 -14 0 -27
-11 -10 -12 -19 -5 -33 6 -12 6 -27 1 -42 l-10 -23 -2 25 c-1 17 -3 20 -6 8
-2 -10 -12 -18 -21 -18 -12 -1 -10 -5 8 -15 l25 -14 -33 -1 c-24 0 -31 -4 -26
-12 5 -7 9 -20 9 -29 1 -13 -3 -13 -21 -5 -16 8 -20 14 -13 22 7 8 6 15 -2 20
-8 4 -9 3 -5 -4 4 -7 3 -12 -2 -12 -5 0 -15 -12 -22 -26 -10 -19 -20 -24 -37
-21 -13 2 -24 -2 -27 -10 -4 -10 1 -12 19 -9 17 3 23 1 19 -6 -5 -7 -1 -9 9
-5 10 3 17 2 17 -4 0 -14 -99 0 -127 17 -12 8 -26 14 -30 14 -4 0 0 -5 9 -11
10 -5 23 -19 29 -30 10 -20 10 -20 -15 -4 -14 10 -26 14 -26 9 0 -4 -5 -3 -11
3 -6 6 -17 9 -25 6 -8 -3 -22 9 -34 29 -11 18 -20 26 -20 18 1 -8 7 -24 15
-34 21 -28 19 -38 -5 -24 -16 11 -22 9 -35 -7 -13 -17 -14 -17 -9 -2 4 10 3
17 -2 16 -21 -4 -28 2 -14 11 13 8 13 11 1 22 -10 10 -12 10 -7 1 4 -8 1 -13
-7 -13 -8 0 -19 10 -26 23 -6 12 -9 14 -7 4 3 -9 1 -30 -5 -45 l-11 -27 -10
25 c-5 14 -7 39 -4 55 4 22 3 26 -4 15 -8 -13 -10 -13 -10 2 0 9 -4 19 -9 23
-6 3 -8 -6 -5 -21 3 -17 1 -23 -7 -19 -8 5 -9 -2 -5 -26 4 -25 4 -29 -3 -14
-5 11 -10 36 -11 55 -2 32 -3 33 -10 10 -4 -14 -6 -34 -5 -45 1 -11 0 -14 -2
-6 -4 10 -7 11 -12 2 -6 -8 -13 -4 -25 14 -14 21 -15 29 -5 41 10 12 9 13 -5
8 -9 -3 -16 -10 -16 -15 0 -5 -4 -9 -10 -9 -5 0 -7 8 -4 18 5 16 5 16 -6 -1
-12 -19 -5 -41 11 -32 12 8 11 -6 -1 -25 -7 -11 -10 -11 -10 -2 0 7 -5 10 -10
7 -6 -4 -7 -11 -4 -17 4 -6 1 -9 -7 -6 -14 5 -16 18 -7 48 3 8 3 12 1 8 -2 -4
-11 -4 -19 -1 -8 3 -14 -1 -14 -8 0 -7 -3 -9 -7 -6 -3 4 2 16 12 27 10 11 15
20 11 20 -12 0 -34 -25 -39 -46 -4 -16 -5 -15 -6 4 0 13 3 31 8 40 5 10 7 30
4 45 l-6 29 -15 -31 c-14 -29 -32 -42 -32 -22 0 16 83 92 89 82 4 -6 12 -7 21
0 13 8 13 10 0 19 -11 8 -8 9 13 4 22 -5 27 -3 28 12 0 18 1 18 8 -1 8 -19 8
-19 19 0z m-173 -45 c-10 -11 -21 -18 -23 -15 -3 3 3 12 14 20 27 20 30 18 9
-5z m5 -34 c0 -2 -8 -10 -17 -17 -16 -13 -17 -12 -4 4 13 16 21 21 21 13z
m-50 -10 c0 -3 -4 -8 -10 -11 -5 -3 -10 -1 -10 4 0 6 5 11 10 11 6 0 10 -2 10
-4z m83 -36 c-3 -10 -12 -25 -19 -31 -12 -10 -13 -8 -8 7 7 19 24 44 29 44 2
0 1 -9 -2 -20z m1203 -5 c-1 -29 -2 -29 -20 -13 -11 11 -11 15 3 25 9 7 17 13
17 13 1 0 1 -11 0 -25z m-1256 1 c0 -2 -8 -10 -17 -17 -16 -13 -17 -12 -4 4
13 16 21 21 21 13z m1258 -72 c-2 -18 0 -30 4 -28 11 7 10 3 -6 -44 -11 -31
-12 -42 -3 -45 9 -3 9 -8 0 -18 -7 -7 -9 -17 -4 -23 10 -14 2 -98 -9 -91 -18
11 -24 -124 -7 -141 10 -10 -4 -58 -20 -67 -20 -12 -15 -29 7 -22 11 4 20 2
20 -4 0 -6 -7 -11 -15 -11 -12 0 -13 -4 -6 -18 5 -9 7 -29 4 -44 -4 -20 -1
-30 11 -34 21 -8 21 -24 0 -24 -9 0 -14 -6 -11 -12 2 -7 10 -12 16 -10 6 1 11
-2 11 -8 0 -5 -5 -10 -12 -10 -7 0 -6 -6 4 -17 9 -10 13 -24 10 -32 -4 -11 -6
-11 -13 0 -7 11 -9 11 -9 -2 0 -8 7 -24 15 -35 8 -10 14 -26 15 -34 0 -13 -1
-13 -10 0 -17 27 -24 0 -7 -29 19 -33 22 -61 6 -61 -6 0 -8 8 -4 19 5 18 -21
39 -33 26 -3 -3 0 -5 6 -5 7 0 12 -11 12 -24 0 -13 7 -29 15 -36 11 -9 15 -9
15 -1 0 7 5 9 10 6 6 -3 10 -22 10 -41 0 -21 -4 -33 -10 -29 -6 4 -10 -5 -10
-20 0 -14 7 -28 16 -32 8 -3 13 -12 10 -19 -3 -8 4 -18 15 -24 11 -6 17 -15
13 -21 -3 -5 -3 -18 1 -27 6 -15 8 -15 15 3 4 11 6 -11 4 -53 -3 -74 -10 -90
-69 -162 -47 -57 -140 -140 -151 -136 -8 3 -11 0 -8 -8 14 -37 -288 -218 -468
-280 -76 -26 -259 -68 -266 -61 -5 5 80 29 91 27 12 -3 42 21 45 36 1 6 -6 12
-15 13 -12 0 -9 4 9 13 21 9 25 15 17 23 -9 9 -4 12 20 11 18 -1 37 4 44 11 9
10 5 12 -22 9 -23 -2 -36 2 -39 11 -3 10 0 12 12 8 10 -4 16 -1 16 8 0 17 12
19 26 5 6 -6 25 -12 42 -13 39 -2 39 -4 5 -19 -22 -9 -24 -12 -10 -15 9 -3 17
-9 17 -14 0 -14 33 -11 58 7 20 14 22 14 22 0 0 -9 -7 -16 -17 -16 -9 0 -14
-3 -10 -6 12 -12 46 7 42 24 -2 13 10 24 41 39 24 12 46 18 49 13 3 -5 -11
-14 -30 -20 -19 -6 -37 -15 -40 -20 -5 -7 14 -3 68 16 9 4 17 14 17 24 0 10
10 20 22 23 19 5 20 8 7 23 -9 12 -10 15 -1 10 7 -4 12 -2 12 4 0 6 5 8 10 5
6 -4 8 -11 5 -16 -3 -5 1 -6 10 -2 13 5 14 7 3 14 -10 7 -7 11 10 15 12 4 22
14 22 24 0 25 38 36 56 18 13 -12 12 -17 -6 -33 -11 -10 -23 -15 -27 -12 -4 4
2 14 13 22 18 13 18 14 1 15 -21 0 -34 -27 -19 -42 14 -14 70 32 64 52 -4 12
-3 13 10 2 13 -10 18 -9 28 3 13 15 10 17 -25 19 -29 1 -32 40 -3 54 22 11 22
12 1 7 -27 -7 -39 11 -16 24 20 12 13 14 -11 5 -19 -7 -22 -74 -4 -92 13 -13
-1 -16 -17 -4 -15 11 -15 102 0 102 7 0 15 16 17 35 3 25 0 35 -10 35 -16 0
-42 24 -42 39 0 6 5 11 10 11 6 0 10 7 10 15 0 9 6 12 18 9 13 -5 14 -4 3 4
-10 7 -10 14 -2 30 9 17 7 21 -12 27 -19 7 -16 9 18 15 l40 7 -47 2 c-32 1
-46 5 -44 14 1 6 1 9 -1 5 -3 -5 -13 -8 -24 -8 -10 0 -19 -4 -19 -10 0 -16
-30 -12 -36 5 -4 8 -11 12 -16 9 -6 -4 -5 -9 2 -14 7 -5 10 -16 6 -25 -5 -13
-14 -16 -34 -12 -31 6 -61 -6 -43 -17 6 -4 11 -2 11 5 0 10 3 10 12 1 17 -17
7 -22 -45 -24 -42 -2 -46 -17 -4 -18 9 0 17 -4 17 -10 0 -15 -33 -12 -57 5
-17 12 -28 13 -49 5 -15 -6 -29 -8 -32 -5 -3 3 1 5 9 5 12 0 11 2 -1 11 -12 8
-11 9 6 5 12 -4 32 3 52 17 34 26 33 46 -2 22 -27 -19 -47 -19 -40 0 7 18 -7
20 -25 3 -11 -11 -13 -10 -9 2 3 9 20 16 46 18 23 2 42 7 42 13 0 5 -11 7 -25
3 -21 -5 -25 -3 -25 15 0 13 -6 21 -16 21 -13 0 -14 -3 -5 -14 12 -15 -4 -26
-37 -26 -15 1 -15 2 1 11 25 15 21 27 -10 32 -27 4 -27 4 -5 12 32 11 27 25
-10 25 -17 0 -28 3 -25 7 4 3 20 6 37 5 16 0 30 4 30 9 0 6 4 8 9 5 4 -3 17 2
27 10 18 14 16 15 -25 10 -41 -4 -42 -4 -21 11 11 8 36 15 54 16 28 1 31 3 20
14 -7 7 -17 13 -23 13 -6 0 -11 5 -11 10 0 6 7 10 15 10 8 0 32 9 52 20 21 11
30 20 21 20 -9 0 -19 -4 -22 -9 -3 -5 -16 -7 -28 -3 l-22 5 22 8 c12 5 27 20
32 34 5 14 16 25 25 25 8 0 15 5 15 11 0 6 -8 8 -19 4 -11 -3 -24 1 -32 11
-13 16 -12 16 7 6 16 -9 22 -7 32 9 7 10 19 19 26 19 8 0 18 4 21 10 3 5 -2 9
-12 8 -32 -2 -53 2 -53 11 0 5 6 9 13 8 35 -1 47 5 47 22 0 11 6 22 13 24 6 3
-3 4 -20 3 -37 -4 -40 2 -15 30 57 65 57 65 42 74 -12 7 -7 11 17 16 18 4 30
10 27 15 -3 5 -9 7 -13 5 -4 -3 -8 9 -8 26 0 23 7 35 29 47 15 9 26 21 24 27
-2 6 0 17 5 25 8 12 10 12 18 0 6 -9 11 -10 15 -2 4 6 3 11 -1 11 -5 0 -9 9
-9 19 0 11 3 18 7 15 4 -2 12 3 19 11 7 8 19 15 26 15 8 0 14 5 14 10 0 6 -8
10 -17 10 -11 0 -5 7 15 17 19 9 38 27 43 41 5 14 12 22 16 19 3 -4 16 12 28
36 12 23 26 41 32 40 6 -1 9 6 6 16 -3 10 0 22 6 25 6 4 11 16 11 26 0 13 9
22 25 26 19 5 25 13 25 35 0 16 5 29 11 29 6 0 8 -9 4 -22 -5 -18 -4 -20 4 -8
6 8 11 23 11 33 0 27 32 65 53 64 15 -1 18 -8 15 -33z m-1175 -9 c-3 -9 -8
-14 -10 -11 -3 3 -2 9 2 15 9 16 15 13 8 -4z m97 5 c0 -5 -4 -10 -10 -10 -5 0
-10 5 -10 10 0 6 5 10 10 10 6 0 10 -4 10 -10z m165 -40 c1 -10 -2 -17 -7 -14
-4 3 -8 15 -8 26 0 26 13 15 15 -12z m360 10 c3 -5 1 -10 -4 -10 -6 0 -11 5
-11 10 0 6 2 10 4 10 3 0 8 -4 11 -10z m-180 -53 c4 5 5 2 0 -6 -6 -11 -12 -9
-26 10 -10 13 -18 31 -18 39 0 8 8 0 17 -18 10 -18 22 -29 27 -25z m84 -6 c-1
-13 -2 -13 -6 2 -2 9 -8 17 -13 17 -4 0 -11 8 -14 17 -6 15 -4 15 14 -2 11
-10 19 -25 19 -34z m-159 7 c0 -5 -7 -3 -15 6 -8 8 -15 18 -15 22 0 3 7 1 15
-6 8 -7 15 -17 15 -22z m590 -143 c-7 -9 -15 -13 -17 -11 -7 7 7 26 19 26 6 0
6 -6 -2 -15z m340 -417 c0 -6 3 -8 6 -5 4 3 15 -5 26 -18 11 -14 25 -25 31
-25 7 0 23 -27 36 -60 22 -54 23 -65 12 -117 -11 -54 -73 -203 -86 -203 -3 0
-4 3 -3 8 1 4 -4 57 -11 117 -18 163 -28 315 -19 315 5 0 8 -5 8 -12z m-610
-72 c0 -3 -4 -8 -10 -11 -5 -3 -10 -1 -10 4 0 6 5 11 10 11 6 0 10 -2 10 -4z
m-50 -66 c0 -5 -4 -10 -9 -10 -6 0 -13 5 -16 10 -3 6 1 10 9 10 9 0 16 -4 16
-10z m-180 -310 c0 -5 -2 -10 -4 -10 -3 0 -8 5 -11 10 -3 6 -1 10 4 10 6 0 11
-4 11 -10z m5 -70 c3 -5 1 -10 -4 -10 -6 0 -11 5 -11 10 0 6 2 10 4 10 3 0 8
-4 11 -10z m42 -6 c-3 -3 -12 -4 -19 -1 -8 3 -5 6 6 6 11 1 17 -2 13 -5z m23
-64 c0 -5 -8 -10 -17 -10 -15 0 -16 2 -3 10 19 12 20 12 20 0z m90 -20 c0 -5
-9 -10 -19 -10 -11 0 -23 -5 -26 -10 -4 -6 -11 -7 -17 -4 -5 3 1 12 14 19 29
16 48 18 48 5z m-44 -46 c10 2 13 1 6 -1 -7 -3 -9 -9 -5 -15 4 -8 0 -9 -13 -3
-10 4 -30 9 -44 10 -36 3 -38 6 -10 14 14 4 30 4 36 0 5 -5 19 -7 30 -5z m54
6 c0 -5 -4 -10 -10 -10 -5 0 -10 5 -10 10 0 6 5 10 10 10 6 0 10 -4 10 -10z
m-85 -39 c3 -5 1 -12 -5 -16 -5 -3 -10 1 -10 9 0 18 6 21 15 7z m350 -1 c3 -5
-1 -10 -10 -10 -9 0 -13 5 -10 10 3 6 8 10 10 10 2 0 7 -4 10 -10z m-280 -10
c3 -5 -1 -10 -9 -10 -9 0 -16 5 -16 10 0 6 4 10 9 10 6 0 13 -4 16 -10z m-35
-19 c0 -5 6 -11 13 -14 6 -2 0 -2 -15 0 -24 4 -28 1 -28 -19 0 -13 -3 -18 -8
-12 -4 6 -14 14 -22 17 -13 4 -12 6 1 6 9 1 22 8 29 16 14 17 30 20 30 6z
m265 -71 c-3 -5 -14 -10 -23 -10 -15 0 -15 2 -2 10 20 13 33 13 25 0z m-285
-30 c0 -5 -7 -7 -15 -4 -8 4 -15 8 -15 10 0 2 7 4 15 4 8 0 15 -4 15 -10z
m-40 -9 c0 -5 -12 -11 -27 -14 -26 -5 -26 -4 -8 9 22 16 35 18 35 5z m16 -44
c8 3 14 0 14 -6 0 -12 -20 -14 -44 -5 -9 3 -13 11 -10 16 4 6 10 6 16 0 6 -6
17 -8 24 -5z m-56 -47 c0 -5 -4 -10 -10 -10 -5 0 -10 5 -10 10 0 6 5 10 10 10
6 0 10 -4 10 -10z m60 -40 c0 -5 -7 -10 -16 -10 -8 0 -12 5 -9 10 3 6 10 10
16 10 5 0 9 -4 9 -10z m-840 -140 c0 -5 -7 -10 -16 -10 -8 0 -12 5 -9 10 3 6
10 10 16 10 5 0 9 -4 9 -10z m48 -36 c13 -9 34 -14 48 -11 13 2 24 1 24 -3 0
-4 19 -7 42 -8 62 -3 60 -12 -3 -12 -64 0 -238 25 -247 35 -4 4 9 5 28 2 19
-3 44 -2 55 3 28 12 28 12 53 -6z m215 -31 c-7 -2 -19 -2 -25 0 -7 3 -2 5 12
5 14 0 19 -2 13 -5z m4137 -3561 c0 -4 9 -13 21 -20 19 -12 20 -11 14 9 -6 19
-5 20 8 8 9 -9 12 -18 6 -23 -15 -17 -11 -66 6 -66 14 0 14 -4 1 -35 -9 -20
-13 -42 -10 -49 3 -8 1 -17 -5 -21 -6 -3 -11 2 -11 12 -1 14 -4 13 -15 -7 -14
-25 -14 -25 -15 -2 0 12 -3 22 -6 22 -13 0 -33 -35 -34 -57 0 -16 -6 -23 -20
-23 -14 0 -20 -7 -20 -21 0 -12 -4 -17 -11 -14 -6 4 -8 13 -5 21 8 20 -11 17
-23 -3 -5 -10 -13 -15 -17 -11 -4 4 -1 14 6 23 7 9 10 18 6 22 -3 3 -6 1 -6
-5 0 -7 -7 -12 -16 -12 -14 0 -14 3 -4 15 10 13 8 21 -3 13 -2 -2 -12 3 -21
11 -14 12 -19 12 -25 2 -5 -8 -25 -11 -52 -9 -35 2 -44 7 -43 21 1 13 -6 17
-28 17 -18 0 -27 -4 -23 -10 4 -6 1 -18 -6 -26 -10 -13 -10 -17 2 -25 11 -7 9
-9 -9 -9 -36 0 -17 -16 33 -29 34 -9 45 -16 45 -31 0 -24 -22 -26 -40 -5 -15
18 -36 19 -43 3 -4 -9 -14 -4 -31 15 -21 22 -26 38 -26 77 0 29 -5 50 -12 52
-10 4 -10 10 0 32 6 15 12 38 12 51 0 24 2 24 48 18 50 -6 65 -13 45 -20 -7
-3 -13 -14 -13 -25 0 -19 0 -19 27 2 20 15 28 18 34 8 10 -16 23 -3 16 16 -4
9 -13 13 -22 10 -8 -3 -15 -2 -15 4 0 17 22 19 56 3 19 -9 30 -20 27 -28 -3
-7 -1 -13 5 -13 5 0 13 16 16 35 7 35 19 44 31 25 3 -5 2 -10 -3 -10 -5 0 -12
-8 -15 -17 -2 -10 -8 -26 -12 -36 -5 -13 -3 -16 8 -11 17 6 32 -12 17 -21 -5
-3 -10 -13 -10 -22 0 -14 3 -13 21 3 15 13 19 25 14 44 -7 29 -6 102 1 109 3
3 9 -1 13 -8 9 -13 36 -12 74 4 14 6 17 2 18 -21 0 -17 3 -23 6 -14 3 8 11 19
17 23 8 6 7 10 -2 14 -6 2 -10 9 -6 14 6 11 24 12 24 1z m-360 -42 c0 -5 -4
-10 -9 -10 -6 0 -13 5 -16 10 -3 6 1 10 9 10 9 0 16 -4 16 -10z m407 -192 c-3
-8 -6 -5 -6 6 -1 11 2 17 5 13 3 -3 4 -12 1 -19z m-37 -35 c0 -7 -7 -13 -15
-13 -10 0 -15 10 -15 32 0 30 1 31 15 12 8 -10 15 -25 15 -31z m17 25 c-3 -8
-6 -5 -6 6 -1 11 2 17 5 13 3 -3 4 -12 1 -19z m-177 -29 c0 -5 -12 -9 -26 -9
-22 0 -25 2 -14 15 9 10 9 15 1 15 -6 0 -11 5 -11 10 0 6 11 3 25 -6 14 -9 25
-20 25 -25z m-85 11 c-3 -5 -10 -10 -16 -10 -5 0 -9 5 -9 10 0 6 7 10 16 10 8
0 12 -4 9 -10z m190 -56 c1 -21 -3 -24 -20 -20 -11 3 -24 6 -28 6 -5 0 -5 5
-2 10 4 6 11 8 16 4 6 -3 13 4 16 15 7 27 18 18 18 -15z m-193 11 c0 -5 -5
-11 -11 -13 -6 -2 -11 4 -11 13 0 9 5 15 11 13 6 -2 11 -8 11 -13z m112 -10
c-21 -16 -36 -15 -41 2 -3 7 8 13 24 15 37 5 41 1 17 -17z m-56 -2 c-2 -10 7
-22 24 -30 19 -10 25 -18 21 -34 -8 -28 -33 -36 -45 -15 -13 23 -30 9 -23 -17
5 -17 4 -19 -4 -7 -17 25 -23 4 -7 -31 8 -19 15 -28 15 -21 1 7 10 22 21 34
l20 22 20 -22 c11 -12 20 -27 20 -34 -1 -8 -5 -7 -14 5 -27 35 -62 11 -57 -38
1 -12 -7 -31 -17 -43 -11 -12 -22 -40 -26 -62 -7 -42 -18 -49 -42 -26 -11 11
-12 24 -5 53 8 32 9 34 10 11 1 -34 17 -37 25 -5 3 12 14 32 26 44 23 25 26
43 7 43 -18 0 -38 70 -26 92 13 24 2 41 -22 35 -15 -4 -16 -2 -6 14 7 11 23
19 40 19 22 0 28 4 23 15 -3 9 0 15 10 15 9 0 14 -7 12 -17z m-190 -20 c-10
-2 -26 -2 -35 0 -10 3 -2 5 17 5 19 0 27 -2 18 -5z m62 3 c0 -15 -14 -35 -21
-30 -15 9 -10 34 6 34 8 0 15 -2 15 -4z m210 -27 c0 -5 -4 -9 -10 -9 -5 0 -10
7 -10 16 0 8 5 12 10 9 6 -3 10 -10 10 -16z m-256 -53 c-3 -9 -10 -13 -15 -10
-5 3 -3 11 4 19 15 16 19 13 11 -9z m253 -6 c2 -11 -2 -20 -7 -20 -6 0 -10 12
-10 27 0 29 12 24 17 -7z m-177 -10 c0 -5 -13 -10 -30 -10 -16 0 -30 5 -30 10
0 6 14 10 30 10 17 0 30 -4 30 -10z m0 -40 c0 -5 -13 -10 -30 -10 -16 0 -30 5
-30 10 0 6 14 10 30 10 17 0 30 -4 30 -10z m18 -24 c-7 -8 -15 -12 -17 -11 -5
6 10 25 20 25 5 0 4 -6 -3 -14z m-128 -6 c0 -5 -2 -10 -4 -10 -3 0 -8 5 -11
10 -3 6 -1 10 4 10 6 0 11 -4 11 -10z m258 -3 c8 -10 6 -13 -9 -14 -10 -1 -19
5 -19 13 0 17 14 18 28 1z m-228 -23 c0 -8 -4 -12 -10 -9 -5 3 -10 10 -10 16
0 5 5 9 10 9 6 0 10 -7 10 -16z m120 -4 c0 -5 -4 -10 -10 -10 -5 0 -10 5 -10
10 0 6 5 10 10 10 6 0 10 -4 10 -10z m45 -82 c-2 -29 1 -58 7 -65 7 -9 7 -17
-1 -27 -6 -7 -9 -22 -5 -32 5 -15 4 -16 -4 -4 -6 8 -8 27 -5 42 4 18 1 28 -6
28 -7 0 -10 8 -8 18 3 9 8 34 12 55 9 54 14 46 10 -15z m50 34 c-3 -3 -11 0
-18 7 -9 10 -8 11 6 5 10 -3 15 -9 12 -12z m-205 4 c0 -11 -19 -15 -25 -6 -3
5 1 10 9 10 9 0 16 -2 16 -4z m0 -65 c0 -5 -9 -11 -21 -14 -16 -4 -18 -3 -8 9
13 16 29 19 29 5z m60 -31 c0 -5 -4 -10 -10 -10 -5 0 -10 5 -10 10 0 6 5 10
10 10 6 0 10 -4 10 -10z m17 -32 c-3 -8 -6 -5 -6 6 -1 11 2 17 5 13 3 -3 4
-12 1 -19z m43 5 c0 -5 -5 -15 -10 -23 -8 -12 -10 -11 -10 8 0 12 5 22 10 22
6 0 10 -3 10 -7z m-85 -23 c3 -5 1 -10 -4 -10 -6 0 -11 5 -11 10 0 6 2 10 4
10 3 0 8 -4 11 -10z m122 -62 c-3 -8 -6 -5 -6 6 -1 11 2 17 5 13 3 -3 4 -12 1
-19z m-147 -222 c0 -3 -4 -8 -10 -11 -5 -3 -10 -1 -10 4 0 6 5 11 10 11 6 0
10 -2 10 -4z m460 -1006 c0 -5 -4 -10 -9 -10 -6 0 -13 5 -16 10 -3 6 1 10 9
10 9 0 16 -4 16 -10z m-10 -140 c13 -9 13 -10 0 -10 -8 0 -22 5 -30 10 -13 9
-13 10 0 10 8 0 22 -5 30 -10z m-17 -70 c-3 -11 -8 -20 -12 -20 -4 0 -7 9 -8
20 -1 11 4 20 12 20 8 0 11 -7 8 -20z m-8259 -35 c-4 -8 -10 -15 -15 -15 -5 0
-9 7 -9 15 0 8 7 15 15 15 9 0 12 -6 9 -15z m44 -17 c-6 -18 -28 -21 -28 -4 0
9 7 16 16 16 9 0 14 -5 12 -12z m72 -12 c0 -3 -4 -8 -10 -11 -5 -3 -10 -1 -10
4 0 6 5 11 10 11 6 0 10 -2 10 -4z m-40 -60 c0 -11 -19 -15 -25 -6 -3 5 1 10
9 10 9 0 16 -2 16 -4z"/>
<path d="M5185 10990 c-3 -5 -1 -10 4 -10 6 0 11 5 11 10 0 6 -2 10 -4 10 -3
0 -8 -4 -11 -10z"/>
<path d="M4100 10942 c0 -14 28 -47 35 -41 2 3 -5 15 -15 29 -11 14 -20 19
-20 12z"/>
<path d="M4081 10884 c0 -11 3 -14 6 -6 3 7 2 16 -1 19 -3 4 -6 -2 -5 -13z"/>
<path d="M4195 10890 c-3 -5 -1 -10 4 -10 6 0 11 5 11 10 0 6 -2 10 -4 10 -3
0 -8 -4 -11 -10z"/>
<path d="M4135 10870 c-3 -5 -1 -10 4 -10 6 0 11 5 11 10 0 6 -2 10 -4 10 -3
0 -8 -4 -11 -10z"/>
<path d="M3927 10853 c-4 -3 -7 -11 -7 -17 0 -6 5 -5 12 2 6 6 9 14 7 17 -3 3
-9 2 -12 -2z"/>
<path d="M4166 10802 c-3 -6 1 -13 10 -16 23 -9 28 -2 10 13 -8 7 -17 8 -20 3z"/>
<path d="M3920 10785 c0 -8 4 -15 10 -15 5 0 7 7 4 15 -4 8 -8 15 -10 15 -2 0
-4 -7 -4 -15z"/>
<path d="M3925 10230 c3 -5 8 -10 11 -10 2 0 4 5 4 10 0 6 -5 10 -11 10 -5 0
-7 -4 -4 -10z"/>
<path d="M4120 10200 c0 -5 5 -10 11 -10 5 0 7 5 4 10 -3 6 -8 10 -11 10 -2 0
-4 -4 -4 -10z"/>
<path d="M4050 10175 c0 -14 4 -25 9 -25 4 0 6 11 3 25 -2 14 -6 25 -8 25 -2
0 -4 -11 -4 -25z"/>
<path d="M4547 10186 c-3 -8 -2 -18 3 -21 13 -8 20 9 11 24 -6 10 -10 9 -14
-3z"/>
<path d="M4600 10160 c0 -5 5 -10 11 -10 5 0 7 5 4 10 -3 6 -8 10 -11 10 -2 0
-4 -4 -4 -10z"/>
<path d="M4521 9154 c0 -11 3 -14 6 -6 3 7 2 16 -1 19 -3 4 -6 -2 -5 -13z"/>
<path d="M5300 8951 c0 -5 5 -13 10 -16 6 -3 10 -2 10 4 0 5 -4 13 -10 16 -5
3 -10 2 -10 -4z"/>
<path d="M5200 8922 c0 -7 -6 -12 -12 -12 -7 0 -22 -8 -33 -16 -19 -16 -19
-16 5 -9 30 9 56 32 47 41 -4 4 -7 2 -7 -4z"/>
<path d="M5138 8823 c7 -3 16 -2 19 1 4 3 -2 6 -13 5 -11 0 -14 -3 -6 -6z"/>
<path d="M5236 8741 c-3 -5 0 -14 8 -20 10 -8 16 -8 25 2 6 8 8 17 4 20 -9 10
-31 9 -37 -2z"/>
<path d="M5156 8724 c-4 -10 -1 -14 6 -12 15 5 23 28 10 28 -5 0 -13 -7 -16
-16z"/>
<path d="M4625 8700 c11 -5 27 -9 35 -9 9 0 8 4 -5 9 -11 5 -27 9 -35 9 -9 0
-8 -4 5 -9z"/>
<path d="M5192 8698 c-14 -14 -16 -28 -3 -28 5 0 11 9 14 20 6 23 5 24 -11 8z"/>
<path d="M5220 8689 c0 -11 5 -17 10 -14 6 3 10 13 10 21 0 8 -4 14 -10 14 -5
0 -10 -9 -10 -21z"/>
<path d="M5642 8715 c0 -16 2 -22 5 -12 2 9 2 23 0 30 -3 6 -5 -1 -5 -18z"/>
<path d="M4530 8290 c0 -8 5 -22 10 -30 9 -13 10 -13 10 0 0 8 -5 22 -10 30
-9 13 -10 13 -10 0z"/>
<path d="M4507 8259 c3 -10 9 -16 14 -13 13 8 11 21 -5 27 -10 4 -12 0 -9 -14z"/>
<path d="M4251 8254 c0 -11 3 -14 6 -6 3 7 2 16 -1 19 -3 4 -6 -2 -5 -13z"/>
<path d="M4488 7973 c6 -2 18 -2 25 0 6 3 1 5 -13 5 -14 0 -19 -2 -12 -5z"/>
<path d="M4236 7944 c-6 -15 -4 -15 11 -3 10 7 20 15 22 16 2 2 -3 3 -11 3 -9
0 -19 -7 -22 -16z"/>
<path d="M4850 7930 c0 -5 5 -10 11 -10 5 0 7 5 4 10 -3 6 -8 10 -11 10 -2 0
-4 -4 -4 -10z"/>
<path d="M4321 7914 c0 -11 3 -14 6 -6 3 7 2 16 -1 19 -3 4 -6 -2 -5 -13z"/>
<path d="M4290 7821 c0 -6 4 -13 10 -16 6 -3 7 1 4 9 -7 18 -14 21 -14 7z"/>
<path d="M4476 7813 c-6 -14 -5 -15 5 -6 7 7 10 15 7 18 -3 3 -9 -2 -12 -12z"/>
<path d="M4491 7764 c0 -11 3 -14 6 -6 3 7 2 16 -1 19 -3 4 -6 -2 -5 -13z"/>
<path d="M5330 7790 c0 -5 5 -10 10 -10 6 0 10 5 10 10 0 6 -4 10 -10 10 -5 0
-10 -4 -10 -10z"/>
<path d="M5325 7730 c3 -5 8 -10 11 -10 2 0 4 5 4 10 0 6 -5 10 -11 10 -5 0
-7 -4 -4 -10z"/>
<path d="M5035 7380 c-3 -5 -1 -10 4 -10 6 0 11 5 11 10 0 6 -2 10 -4 10 -3 0
-8 -4 -11 -10z"/>
<path d="M5316 6885 c-9 -26 -7 -32 5 -12 6 10 9 21 6 23 -2 3 -7 -2 -11 -11z"/>
<path d="M5370 6713 c0 -5 5 -15 10 -23 8 -12 10 -11 10 8 0 12 -4 22 -10 22
-5 0 -10 -3 -10 -7z"/>
<path d="M5063 6675 c-3 -9 -3 -18 0 -21 9 -9 27 6 27 22 0 19 -19 18 -27 -1z"/>
<path d="M4870 6630 c-9 -6 -10 -10 -3 -10 6 0 15 5 18 10 8 12 4 12 -15 0z"/>
<path d="M5400 6624 c0 -8 5 -12 10 -9 6 4 8 11 5 16 -9 14 -15 11 -15 -7z"/>
<path d="M5060 6511 c0 -5 5 -13 10 -16 6 -3 10 -2 10 4 0 5 -4 13 -10 16 -5
3 -10 2 -10 -4z"/>
<path d="M5026 6227 c3 -10 9 -15 12 -12 3 3 0 11 -7 18 -10 9 -11 8 -5 -6z"/>
<path d="M4685 6090 c3 -5 8 -10 11 -10 2 0 4 5 4 10 0 6 -5 10 -11 10 -5 0
-7 -4 -4 -10z"/>
<path d="M4715 6070 c-3 -6 1 -7 9 -4 18 7 21 14 7 14 -6 0 -13 -4 -16 -10z"/>
<path d="M4640 6050 c0 -5 7 -7 15 -4 8 4 15 8 15 10 0 2 -7 4 -15 4 -8 0 -15
-4 -15 -10z"/>
<path d="M8270 2335 c-7 -9 -8 -15 -2 -15 5 0 12 7 16 15 3 8 4 15 2 15 -2 0
-9 -7 -16 -15z"/>
<path d="M8190 2285 c0 -22 4 -34 10 -30 6 3 10 17 10 30 0 13 -4 27 -10 30
-6 4 -10 -8 -10 -30z"/>
<path d="M8025 2291 c-7 -12 12 -24 25 -16 11 7 4 25 -10 25 -5 0 -11 -4 -15
-9z"/>
<path d="M7980 2275 c0 -8 5 -15 10 -15 6 0 10 7 10 15 0 8 -4 15 -10 15 -5 0
-10 -7 -10 -15z"/>
<path d="M7874 2256 c-4 -11 -1 -21 7 -27 17 -11 26 18 10 34 -7 7 -12 5 -17
-7z"/>
<path d="M7934 2255 c-18 -14 -18 -14 9 -15 15 0 27 4 27 9 0 18 -17 20 -36 6z"/>
<path d="M8222 2240 c-14 -24 -40 -26 -48 -5 -8 20 -24 19 -24 0 0 -19 41 -36
69 -28 14 3 21 13 21 29 0 29 -2 30 -18 4z"/>
<path d="M7877 2194 c-8 -8 1 -24 14 -24 5 0 9 7 9 15 0 15 -12 20 -23 9z"/>
<path d="M115 80 c-11 -5 -14 -9 -6 -9 9 -1 12 -9 9 -25 -3 -14 -2 -30 2 -37
4 -6 9 9 11 35 2 25 4 46 4 45 0 0 -9 -4 -20 -9z"/>
<path d="M8445 50 c-19 -21 -45 -27 -45 -10 0 6 -7 10 -15 10 -21 0 -19 -12 5
-33 23 -20 60 -23 60 -5 0 9 3 9 12 0 7 -7 25 -12 40 -12 23 0 28 4 28 24 0
14 -7 26 -17 29 -10 2 -25 8 -34 11 -9 4 -23 -1 -34 -14z"/>
</g>
</svg>
